<svg xmlns="http://www.w3.org/2000/svg" version="1.1" xmlns:xlink="http://www.w3.org/1999/xlink" xmlns:svgjs="http://svgjs.com/svgjs" width="1000" height="1000"><rect width="1000" height="1000" rx="50" ry="50" fill="#1976d2"></rect><g transform="matrix(5.405405405405405,0,0,5.405405405405405,343.24327370282765,200)"><svg xmlns="http://www.w3.org/2000/svg" version="1.1" xmlns:xlink="http://www.w3.org/1999/xlink" xmlns:svgjs="http://svgjs.com/svgjs" width="58" height="111"><svg width="58" height="111" viewBox="0 0 58 111" fill="none" xmlns="http://www.w3.org/2000/svg">
<path d="M29.0008 0C32.5653 0 35.4451 3.1067 35.4451 6.9375V14.6728C35.7673 14.7183 36.0693 14.7682 36.3916 14.8181C38.5262 15.1606 44.8899 16.2641 47.5079 16.9774C50.7703 17.9183 53.0459 21.7014 52.1599 25.4086C51.2939 29.1158 47.7898 31.3705 44.3261 30.4383C42.4532 29.7229 36.754 28.899 34.4986 28.5521C28.0342 27.5115 22.4961 28.0318 18.69 29.5928C15.0087 31.1104 13.4802 33.2566 13.0754 35.6631C12.6847 37.9828 12.9808 39.3053 13.3352 40.1291C13.7158 40.9963 14.4589 41.9719 15.9391 43.0342C19.2136 45.3539 24.2079 46.9148 30.6924 48.801L31.2563 48.9744C36.9756 50.6438 43.9837 52.7033 49.1794 56.4105C52.0189 58.4484 54.6973 61.2018 56.3486 65.0174C58.0201 68.8764 58.3826 73.2123 57.6173 77.635C56.2077 86.0684 50.7703 91.575 44.3865 94.4367C41.6477 95.6508 38.6269 96.4313 35.4451 96.8215V104.063C35.4451 107.9 32.5653 111 29.0008 111C25.4363 111 22.5565 107.9 22.5565 104.063V96.4963C22.476 96.4963 22.3753 96.2795 22.2947 96.4529H22.2544C17.3608 95.6291 9.27933 93.3527 3.82788 90.7512C0.575542 89.1902 -0.888514 85.0928 0.557417 81.5807C2.00335 78.0902 5.81151 76.5076 8.8826 78.0686C13.2728 80.0848 20.2003 82.0576 24.2079 82.7297C30.6521 83.7703 35.9485 83.1633 39.5331 81.6023C42.9365 80.1064 44.4872 77.9385 44.9302 75.3369C45.3128 73.0172 45.0309 71.6947 44.6684 70.8709C44.2858 70.0037 43.5407 69.0281 42.0706 67.9658C38.788 65.6461 33.7937 64.0852 27.3092 62.199L26.7453 62.0256C21.026 60.3563 14.0138 58.2967 8.81413 54.5895C5.97261 52.5516 3.31033 49.7982 1.65697 45.9826C-0.0205528 42.1236 -0.385056 37.7877 0.394297 33.1699C1.82009 24.7365 7.46285 19.3578 14.0904 16.6348C16.7124 15.5573 19.5559 14.8484 22.5565 14.4669V6.9375C22.5565 3.1067 25.4363 0 29.0008 0Z" fill="white"></path>
</svg></svg></g></svg>